<svg width="311" height="234" fill="none" xmlns="http://www.w3.org/2000/svg"><path d="M86.153 170.988c29.282 23.905 41.593 55.415 79.329 55.411 27.583-.003 40.979-14.634 64.18-29.616 38.468-24.841 81.076-39.137 81.076-84.87 0-46.912-37.868-84.941-84.58-84.942-26.85 0-26.012 6.46-52.862 6.463-37.223.004-51.493-32.32-88.716-32.314C37.867 1.128 0 39.15 0 86.06c0 46.91 49.57 55.062 86.153 84.927z" fill="url(#paint0_linear)"/><path fill-rule="evenodd" clip-rule="evenodd" d="M99.77 164.185c7.363 0 13.657 4.598 16.189 11.091.253-.015.509-.023.766-.023 6.46 0 11.756 5.003 12.255 11.362a7.997 7.997 0 0 1 2.158-.294c4.448 0 8.054 3.621 8.054 8.088 0 4.468-3.606 8.089-8.054 8.089-.96 0-1.881-.169-2.734-.478-2.016 4.692-8.758 8.141-16.765 8.141-9.599 0-17.38-4.956-17.38-11.069 0-.295.019-.588.054-.877a17.455 17.455 0 0 1-11.922-16.577c0-9.639 7.78-17.453 17.379-17.453z" fill="url(#paint1_linear)"/><path fill-rule="evenodd" clip-rule="evenodd" d="M67.555 98.626c7.363 0 13.656 4.599 16.188 11.092.254-.016.51-.023.767-.023 6.46 0 11.755 5.003 12.254 11.361a8.046 8.046 0 0 1 2.158-.293c4.448 0 8.054 3.621 8.054 8.088 0 4.467-3.606 8.088-8.054 8.088-.96 0-1.88-.168-2.734-.477-2.015 4.692-8.758 8.14-16.765 8.14-9.598 0-17.38-4.955-17.38-11.068 0-.295.019-.588.055-.878a17.455 17.455 0 0 1-11.923-16.576c0-9.639 7.781-17.454 17.38-17.454z" fill="url(#paint2_linear)"/><path fill-rule="evenodd" clip-rule="evenodd" d="M227.568 159.091c2.551-5.978 9.112-10.232 16.803-10.232 9.909 0 17.942 7.061 17.942 15.772 0 4.125-1.801 7.88-4.75 10.69 4.503 1.691 7.659 5.62 7.659 10.197 0 6.121-5.644 11.083-12.607 11.083-5.664 0-10.455-3.283-12.046-7.802-2.368.629-5.026.982-7.835.982-3.697 0-7.132-.611-9.986-1.658-2.309 2.568-5.884 4.215-9.896 4.215-5.645 0-10.423-3.26-12.03-7.755-.507.054-1.024.083-1.548.083-6.963 0-12.608-4.962-12.608-11.083s5.645-11.083 12.608-11.083c4.943 0 9.222 2.5 11.288 6.141a9.372 9.372 0 0 1 4.324.171c.763-5.479 6.074-9.722 12.513-9.722l.169.001z" fill="url(#paint3_linear)"/><path fill-rule="evenodd" clip-rule="evenodd" d="M177.297 185.836c3.276-7.675 11.7-13.138 21.576-13.138 9.364 0 17.424 4.912 21.026 11.965a18.16 18.16 0 0 1 5.666-.896c8.941 0 16.189 6.371 16.189 14.231 0 7.859-7.248 14.23-16.189 14.23-.849 0-1.684-.057-2.498-.168 1.632 2.221 2.579 4.868 2.579 7.709 0 7.859-7.248 14.231-16.188 14.231-7.272 0-13.425-4.215-15.468-10.018-3.039.808-6.453 1.261-10.06 1.261-4.746 0-9.156-.784-12.822-2.129-2.965 3.297-7.554 5.413-12.706 5.413-7.109 0-13.147-4.028-15.324-9.629a18.37 18.37 0 0 1-2.29.142c-2.3 0-4.488-.422-6.47-1.182-1.579 5.636-6.021 9.696-11.253 9.696-6.555 0-11.869-6.372-11.869-14.231s5.314-14.231 11.869-14.231c.934 0 1.842.13 2.714.374 2.403-5.212 8.218-8.888 15.009-8.888 6.214 0 11.611 3.079 14.324 7.596a11.952 11.952 0 0 1 2.667-.298c1.128 0 2.215.155 3.234.442.98-7.035 7.8-12.483 16.068-12.483l.216.001z" fill="url(#paint4_linear)"/><path d="M146.521 84.471l13.806 57.605M137.333 63.957l22.995 78.119M149.985 48.962l10.343 93.114M157.946 68.59l2.382 73.486" stroke="#394062" stroke-width=".424" stroke-linecap="round" stroke-linejoin="round"/><path d="M159.974 97.091v45.127" stroke="#393D5E" stroke-width=".424" stroke-linecap="round" stroke-linejoin="round"/><path d="M174.681 82.755l-14.595 59.433M170.482 51.877l-10.396 90.311M181.367 67.594l-21.281 74.594" stroke="#394062" stroke-width=".424" stroke-linecap="round" stroke-linejoin="round"/><path fill-rule="evenodd" clip-rule="evenodd" d="M161.57 36.41c7.177-.885 12.873-13.881 12.873-21.366C174.443 7.292 168.334 0 160.798 0s-13.645 7.292-13.645 15.043c0 7.473 5.676 20.437 12.836 21.363l-.888 1.58a.494.494 0 0 0 .431.737h2.556c.385 0 .622-.42.424-.75l-.942-1.563z" fill="url(#paint5_radial)"/><path fill-rule="evenodd" clip-rule="evenodd" d="M189.462 40.892c-1.948 6.658-11.752 15.688-19.612 12.351-7.86-3.336-10.798-17.775-8.85-24.433 1.947-6.657 10.151-10.215 18.01-6.879 7.86 3.336 12.399 12.304 10.452 18.961zM167.797 54.46a.421.421 0 0 1 .411-.042l.652.271a.532.532 0 0 1 .293.321l.575 1.686c.135.396-.202.754-.568.601l-2.505-1.043c-.36-.15-.439-.664-.136-.88l1.278-.914z" fill="url(#paint6_radial)"/><path fill-rule="evenodd" clip-rule="evenodd" d="M201.812 49.106c-.925 7.128-9.008 18.093-16.97 16.122-7.962-1.972-12.788-16.133-11.863-23.261.924-7.128 8.247-12.235 16.21-10.263 7.962 1.971 13.547 10.274 12.623 17.402zm-18.702 17.04a.433.433 0 0 1 .423-.12l.617.15a.552.552 0 0 1 .359.295l.808 1.648c.186.378-.099.775-.488.68l-2.539-.615c-.382-.093-.551-.584-.294-.856l1.114-1.183z" fill="url(#paint7_radial)"/><path fill-rule="evenodd" clip-rule="evenodd" d="M142.784 37.203c1.587 6.804-2.059 21.17-10.005 24.096-7.947 2.926-17.186-6.694-18.772-13.498-1.587-6.804 3.363-15.577 11.309-18.504 7.947-2.926 15.881 1.101 17.468 7.906zm-9.426 25.808a.546.546 0 0 1 .321-.33l.647-.232c.14-.051.289-.03.402.054l1.281.962c.304.227.199.755-.177.89l-2.518.909c-.37.133-.688-.226-.547-.617l.591-1.636z" fill="url(#paint8_radial)"/><path fill-rule="evenodd" clip-rule="evenodd" d="M157.854 23.93c.924 7.127-3.901 21.289-11.863 23.26s-16.046-8.993-16.97-16.121c-.924-7.128 4.661-15.431 12.623-17.403 7.962-1.971 15.286 3.135 16.21 10.263zm-11.587 24.534a.554.554 0 0 1 .366-.31l.617-.15a.435.435 0 0 1 .413.108l1.181 1.166c.271.267.105.773-.284.867l-2.538.616c-.382.093-.667-.29-.496-.665l.741-1.632z" fill="url(#paint9_radial)"/><path fill-rule="evenodd" clip-rule="evenodd" d="M191.805 62.598c-.721 7.245-8.414 18.708-16.335 17.095-7.92-1.613-13.069-15.69-12.347-22.936.722-7.245 7.821-12.753 15.742-11.14 7.92 1.612 13.662 9.735 12.94 16.98zM173.891 80.45a.44.44 0 0 1 .426-.142l.601.12a.548.548 0 0 1 .373.288l.858 1.658c.191.37-.083.771-.474.693l-2.544-.508c-.383-.076-.57-.555-.326-.84l1.086-1.27z" fill="url(#paint10_radial)"/><path fill-rule="evenodd" clip-rule="evenodd" d="M158.112 70.003c7.177-.884 12.873-13.881 12.873-21.367 0-7.752-6.109-15.043-13.645-15.043s-13.645 7.291-13.645 15.043c0 7.472 5.676 20.436 12.835 21.362l-.888 1.581a.494.494 0 0 0 .431.737h2.557c.384 0 .622-.42.423-.75l-.941-1.563z" fill="url(#paint11_radial)"/><path fill-rule="evenodd" clip-rule="evenodd" d="M155.614 57.26c1.356 6.908-2.718 21.213-10.693 23.842-7.976 2.628-16.832-7.415-18.189-14.323-1.356-6.907 3.833-15.535 11.808-18.164 7.975-2.628 15.717 1.738 17.074 8.645zm-10.188 25.446a.55.55 0 0 1 .336-.324l.639-.206a.426.426 0 0 1 .406.07l1.245 1.022c.294.241.168.764-.213.887l-2.526.815c-.375.12-.681-.247-.529-.634l.642-1.63z" fill="url(#paint12_radial)"/><path fill-rule="evenodd" clip-rule="evenodd" d="M160.582 95.156c7.177-.885 12.873-13.881 12.873-21.366 0-7.752-6.11-15.044-13.645-15.044-7.536 0-13.646 7.292-13.646 15.044 0 7.472 5.677 20.437 12.836 21.362l-.887 1.58a.494.494 0 0 0 .431.737h2.556c.385 0 .622-.42.424-.75l-.942-1.563z" fill="url(#paint13_radial)"/><path fill-rule="evenodd" clip-rule="evenodd" d="M142.197 212.963c0-.799.648-1.454 1.448-1.454h33.653c.8 0 1.448.655 1.448 1.454 0 .8-.648 1.455-1.448 1.455h-33.653c-.8 0-1.448-.655-1.448-1.455z" fill="#3A527F"/><path fill-rule="evenodd" clip-rule="evenodd" d="M160.307 129.414c8.729 0 15.805 7.219 15.805 16.123v27.548c0 8.905-7.076 16.123-15.805 16.123s-15.805-7.218-15.805-16.123v-27.548c0-8.904 7.076-16.123 15.805-16.123z" fill="url(#paint14_linear)"/><path d="M156.606 139.003l-3.792 3.808M162.252 139.036l-8.457 8.493M166.962 140.01l-11.285 11.333M166.064 146.615l-5.655 5.679" stroke="#000" stroke-opacity=".25" stroke-width="1.325" stroke-linecap="round" stroke-linejoin="round"/><path fill-rule="evenodd" clip-rule="evenodd" d="M176.112 159.473v13.774c0 8.904-7.076 16.122-15.805 16.122s-15.805-7.218-15.805-16.122V159.57l31.61-.097z" fill="url(#paint15_linear)"/><path fill="#000" fill-opacity=".25" d="M144.498 161.342h31.614v5.321h-31.614z"/><path fill-rule="evenodd" clip-rule="evenodd" d="M181.709 158.216a1.976 1.976 0 0 1 3.952 0v1.867a1.976 1.976 0 0 1-3.952 0v-1.867z" fill="#A07BD0"/><rect x="134.953" y="156.24" width="3.951" height="5.818" rx="1.976" fill="#A07BD0"/><path fill-rule="evenodd" clip-rule="evenodd" d="M158.002 193.409h4.61v18.1h-4.61v-18.1z" fill="#3A527F"/><path fill-rule="evenodd" clip-rule="evenodd" d="M158.002 193.409h4.61v6.512l-4.61-4.13v-2.382z" fill="#000" fill-opacity=".25"/><path d="M180.212 154.624v19.114c0 10.79-8.912 19.538-19.905 19.538h-.181c-10.993 0-19.905-8.748-19.905-19.538v-19.114" stroke="#3A527F" stroke-width="2.575" stroke-linecap="round" stroke-linejoin="round"/><path fill="#A07BD0" d="M141.538 157.533h37.537v3.878h-37.537z"/><path fill="#000" fill-opacity=".25" d="M141.538 160.012h37.537v1.4h-37.537z"/><defs><linearGradient id="paint0_linear" x1="115.241" y1="63.393" x2="192.72" y2="177.721" gradientUnits="userSpaceOnUse"><stop stop-color="#FBFBFB"/><stop offset="1" stop-color="#C5D9F8"/></linearGradient><linearGradient id="paint1_linear" x1="126.379" y1="214.899" x2="134.184" y2="172.809" gradientUnits="userSpaceOnUse"><stop stop-color="#CCE0FF"/><stop offset="1" stop-color="#fff"/></linearGradient><linearGradient id="paint2_linear" x1="92.631" y1="184.947" x2="113.137" y2="118.738" gradientUnits="userSpaceOnUse"><stop stop-color="#CCE0FF"/><stop offset="1" stop-color="#fff"/></linearGradient><linearGradient id="paint3_linear" x1="199.113" y1="202.482" x2="195.629" y2="160.402" gradientUnits="userSpaceOnUse"><stop stop-color="#CCE0FF"/><stop offset="1" stop-color="#fff"/></linearGradient><linearGradient id="paint4_linear" x1="130.879" y1="229.638" x2="128.658" y2="180.838" gradientUnits="userSpaceOnUse"><stop stop-color="#CCE0FF"/><stop offset="1" stop-color="#fff"/></linearGradient><radialGradient id="paint5_radial" cx="0" cy="0" r="1" gradientUnits="userSpaceOnUse" gradientTransform="rotate(78.06 78.313 98.616) scale(27.9962 20.5863)"><stop stop-color="#3C88D1"/><stop offset="1" stop-color="#393C5C"/></radialGradient><radialGradient id="paint6_radial" cx="0" cy="0" r="1" gradientUnits="userSpaceOnUse" gradientTransform="matrix(4.63314 29.17339 -20.37298 3.23551 172.352 18.026)"><stop stop-color="#B682DB"/><stop offset="1" stop-color="#164B89"/></radialGradient><radialGradient id="paint7_radial" cx="0" cy="0" r="1" gradientUnits="userSpaceOnUse" gradientTransform="rotate(83.388 74.977 120.863) scale(28.3679 21.2492)"><stop stop-color="#3C88D1"/><stop offset="1" stop-color="#393C5C"/></radialGradient><radialGradient id="paint8_radial" cx="0" cy="0" r="1" gradientUnits="userSpaceOnUse" gradientTransform="rotate(65.651 37.588 111.861) scale(25.6506 24.1532)"><stop stop-color="#3C88D1"/><stop offset="1" stop-color="#393C5C"/></radialGradient><radialGradient id="paint9_radial" cx="0" cy="0" r="1" gradientUnits="userSpaceOnUse" gradientTransform="rotate(59.307 54.595 127.114) scale(24.4499 23.9296)"><stop stop-color="#B682DB"/><stop offset="1" stop-color="#164B89"/></radialGradient><radialGradient id="paint10_radial" cx="0" cy="0" r="1" gradientUnits="userSpaceOnUse" gradientTransform="rotate(82.242 61.436 124.219) scale(28.2138 21.1739)"><stop stop-color="#3C88D1"/><stop offset="1" stop-color="#393C5C"/></radialGradient><radialGradient id="paint11_radial" cx="0" cy="0" r="1" gradientUnits="userSpaceOnUse" gradientTransform="matrix(5.79208 27.3906 -20.14091 4.25904 155.135 35.188)"><stop stop-color="#3C88D1"/><stop offset="1" stop-color="#393C5C"/></radialGradient><radialGradient id="paint12_radial" cx="0" cy="0" r="1" gradientUnits="userSpaceOnUse" gradientTransform="matrix(10.03552 23.7514 -21.93314 9.26727 137.026 50.816)"><stop stop-color="#3C88D1"/><stop offset="1" stop-color="#393C5C"/></radialGradient><radialGradient id="paint13_radial" cx="0" cy="0" r="1" gradientUnits="userSpaceOnUse" gradientTransform="matrix(9.43013 24.79135 -19.70986 7.49723 154.19 58.746)"><stop stop-color="#B682DB"/><stop offset="1" stop-color="#164B89"/></radialGradient><linearGradient id="paint14_linear" x1="180.981" y1="140.271" x2="153.988" y2="129.735" gradientUnits="userSpaceOnUse"><stop stop-color="#24B9E7"/><stop offset="1" stop-color="#AFFFF7"/></linearGradient><linearGradient id="paint15_linear" x1="179.5" y1="182.64" x2="165.137" y2="153.034" gradientUnits="userSpaceOnUse"><stop stop-color="#003D50"/><stop offset="1" stop-color="#00799E"/></linearGradient></defs></svg>